<svg
  class="size-8"
  width="512"
  height="512"
  viewBox="0 0 512 512"
  fill="none"
  xmlns="http://www.w3.org/2000/svg"
>
  <path d="M223.402 353.8H419.002V419H223.402V353.8Z" fill="white"></path>
  <path
    d="M125.6 419C143.604 419 158.2 404.404 158.2 386.4C158.2 368.395 143.604 353.8 125.6 353.8C107.596 353.8 93 368.395 93 386.4C93 404.404 107.596 419 125.6 419Z"
    fill="white"></path>
  <path
    d="M386.403 288.6C404.407 288.6 419.003 274.004 419.003 256C419.003 237.995 404.407 223.4 386.403 223.4C368.398 223.4 353.803 237.995 353.803 256C353.803 274.004 368.398 288.6 386.403 288.6Z"
    fill="white"></path>
  <path d="M288.6 288.6H92.9997V223.4L288.6 223.4V288.6Z" fill="white"></path>
  <path d="M223.402 93H419.002V158.2H223.402V93Z" fill="white"></path>
  <path
    d="M125.6 158.2C143.604 158.2 158.2 143.604 158.2 125.6C158.2 107.596 143.604 93 125.6 93C107.596 93 93 107.596 93 125.6C93 143.604 107.596 158.2 125.6 158.2Z"
    fill="white"></path>
</svg>
