<svg
	class="h-full w-full"
	width="115"
	height="44"
	viewBox="0 0 115 44"
	fill="none"
	xmlns="http://www.w3.org/2000/svg"
>
	<path
		d="M14.5078 34.7878C14.5078 34.0718 14.5078 33.7138 14.5661 33.4162C14.8057 32.1937 15.747 31.2382 16.9512 30.995C17.2445 30.9357 17.5971 30.9357 18.3024 30.9357C19.0077 30.9357 19.3603 30.9357 19.6535 30.995C20.8578 31.2382 21.7991 32.1937 22.0386 33.4162C22.097 33.7138 22.097 34.0718 22.097 34.7878V36.0718C22.097 37.0317 22.097 37.5117 21.8935 37.8693C21.7604 38.1036 21.5687 38.298 21.338 38.4333C20.9858 38.6397 20.513 38.6397 19.5672 38.6397H17.0376C16.0918 38.6397 15.6189 38.6397 15.2667 38.4333C15.036 38.298 14.8444 38.1036 14.7112 37.8693C14.5078 37.5117 14.5078 37.0317 14.5078 36.0718V34.7878Z"
		fill="white"
	/>
	<path
		d="M8.82303 38.6397H11.4234C11.7179 38.6397 11.8651 38.6397 11.941 38.5447C12.0169 38.4497 11.9851 38.2965 11.9215 37.99C9.41745 25.9284 20.9967 28.64 22.6732 20.2948C23.5287 16.0357 21.0932 10.3189 21.2371 6.34676C21.255 5.84889 21.264 5.59995 21.1314 5.5228C20.9987 5.44564 20.8072 5.56943 20.4241 5.81701C15.0116 9.31423 11.0673 15.9996 12.5089 20.1014C12.7292 20.7284 12.8394 21.0419 12.7001 21.1564C12.5607 21.2709 12.3249 21.1233 11.8533 20.8281C11.0865 20.3482 10.1752 19.5624 9.54168 18.3243C9.35582 17.9611 9.26288 17.7795 9.12653 17.7658C8.99017 17.7521 8.87301 17.9001 8.6387 18.1962C1.82849 26.8007 4.58824 35.3935 8.52156 38.5362C8.58432 38.5863 8.61571 38.6115 8.65593 38.6256C8.69615 38.6397 8.73845 38.6397 8.82303 38.6397Z"
		fill="white"
	/>
	<path
		d="M25.7903 19.0765C26.1389 23.0295 23.7958 25.7335 21.1194 27.6066C20.6521 27.9336 20.4185 28.0971 20.4387 28.2529C20.4589 28.4086 20.7381 28.5095 21.2966 28.7113C24.8651 30.0005 25.0273 33.6961 24.7318 38.0872C24.7144 38.3468 24.7056 38.4767 24.7807 38.5582C24.8556 38.6397 24.9831 38.6397 25.238 38.6397H27.4672C27.5347 38.6397 27.5685 38.6397 27.6012 38.6306C27.6339 38.6215 27.6629 38.6042 27.7209 38.5695C35.7118 33.7848 31.4215 22.3553 26.5465 18.5826C26.1912 18.3075 26.0135 18.17 25.869 18.2509C25.7246 18.3319 25.7465 18.5801 25.7903 19.0765Z"
		fill="white"
	/>
	<path
		d="M49.2636 14.7492C51.0469 12.954 53.1906 12.0564 55.6947 12.0564C58.1988 12.0564 60.333 12.954 62.0973 14.7492C63.8806 16.5252 64.7722 18.6737 64.7722 21.1945C64.7722 23.7154 63.8806 25.8734 62.0973 27.6686C60.333 29.4447 58.1988 30.3327 55.6947 30.3327C54.8812 30.3327 54.0869 30.2269 53.3116 30.0152C52.497 29.793 52.0898 29.6818 51.8719 29.8495C51.6539 30.0172 51.6539 30.4021 51.6539 31.1721V35.3467C51.6539 35.6885 51.6539 35.8594 51.5686 35.9958C51.4833 36.1322 51.3303 36.2062 51.0241 36.354L48.2085 37.7141C47.4937 38.0594 47.1364 38.232 46.8767 38.0677C46.6172 37.9035 46.6172 37.5045 46.6172 36.7068V21.1945C46.6172 18.6737 47.4993 16.5252 49.2636 14.7492ZM58.5403 18.3585C57.7624 17.5564 56.814 17.1555 55.6947 17.1555C54.5753 17.1555 53.6173 17.5564 52.8206 18.3585C52.0428 19.1415 51.6539 20.0869 51.6539 21.1945C51.6539 22.3213 52.0428 23.2857 52.8206 24.0878C53.6173 24.8708 54.5753 25.2623 55.6947 25.2623C56.814 25.2623 57.7624 24.8708 58.5403 24.0878C59.3371 23.2857 59.7355 22.3213 59.7355 21.1945C59.7355 20.0869 59.3371 19.1415 58.5403 18.3585Z"
		fill="white"
	/>
	<path
		d="M75.8332 31.5358C75.1692 33.3501 74.0595 34.792 72.5039 35.8614C71.336 36.6887 70.0805 37.2071 68.7374 37.4167C68.1743 37.5045 67.8929 37.5485 67.6937 37.3491C67.4946 37.1494 67.5407 36.8416 67.6329 36.2256L68.0619 33.3596C68.1117 33.0273 68.1366 32.8612 68.206 32.7573C68.2751 32.6531 68.5366 32.4959 69.0592 32.1812C69.3812 31.9873 69.5884 31.7495 69.6583 31.6791C69.7783 31.5583 70.7965 30.5714 71.0811 29.7884L71.3726 29.0179C71.4534 28.8044 71.4938 28.6977 71.4906 28.5865C71.4875 28.4756 71.441 28.3713 71.348 28.163L64.8684 13.6312C64.552 12.9214 64.3937 12.5665 64.5579 12.3115C64.7219 12.0564 65.1086 12.0564 65.8817 12.0564H68.9533C69.309 12.0564 69.4868 12.0564 69.626 12.1489C69.7652 12.2414 69.8351 12.4059 69.9747 12.735L72.8814 19.5837C73.358 20.7068 73.5963 21.2684 73.977 21.2548C74.3578 21.2412 74.556 20.6641 74.9525 19.5098L77.2537 12.8089C77.3785 12.4455 77.4409 12.2637 77.5856 12.1601C77.7302 12.0564 77.9214 12.0564 78.3034 12.0564H81.3035C82.0251 12.0564 82.3861 12.0564 82.5519 12.2947C82.7177 12.5331 82.5941 12.8742 82.347 13.5565L75.8332 31.5358Z"
		fill="white"
	/>
	<path
		d="M82.6719 21.1945C82.6719 18.6736 83.554 16.5251 85.3183 14.7491C86.7767 13.2809 89.0566 12.4131 91.2085 12.1457C91.823 12.0693 92.1303 12.0311 92.3239 12.2499C92.5176 12.4686 92.4398 12.7914 92.2841 13.4371L91.5936 16.3014C91.5063 16.664 91.4625 16.8452 91.3576 16.9544C91.2525 17.0635 91.0097 17.1313 90.524 17.2669C89.8733 17.4486 89.3753 17.8409 88.8608 18.3584C88.1406 19.083 88.2147 20.0868 88.2147 21.1945V29.6148C88.2147 29.9634 88.2146 30.1377 88.1265 30.2758C88.0384 30.4136 87.8809 30.4861 87.5658 30.631L84.2443 32.159C83.5363 32.4846 83.1822 32.6474 82.9271 32.4824C82.6719 32.3175 82.6719 31.9259 82.6719 31.1427V21.1945Z"
		fill="white"
	/>
	<path
		d="M94.998 14.7492C96.7811 12.954 98.9249 12.0564 101.429 12.0564C103.933 12.0564 106.067 12.954 107.832 14.7492C109.615 16.5252 110.507 18.6737 110.507 21.1945C110.507 23.7154 109.615 25.8734 107.832 27.6686C106.067 29.4447 103.933 30.3327 101.429 30.3327C98.9249 30.3327 96.7811 29.4447 94.998 27.6686C93.2337 25.8734 92.3516 23.7154 92.3516 21.1945C92.3516 18.6737 93.2337 16.5252 94.998 14.7492ZM104.275 18.33C103.497 17.5279 102.548 17.1268 101.429 17.1268C100.31 17.1268 99.3517 17.5279 98.555 18.33C97.7772 19.1129 97.3882 20.0678 97.3882 21.1945C97.3882 22.3022 97.7772 23.257 98.555 24.0591C99.3517 24.8421 100.31 25.2337 101.429 25.2337C102.548 25.2337 103.497 24.8421 104.275 24.0591C105.071 23.257 105.47 22.3022 105.47 21.1945C105.47 20.0678 105.071 19.1129 104.275 18.33Z"
		fill="white"
	/>
</svg>
